<svg id="RWD_Icon_Set" data-name="RWD Icon Set" xmlns="http://www.w3.org/2000/svg" viewBox="0 0 24.6 30">
  <defs>
    <style>
      .cls-1 {
        fill: #3071a9;
      }

      .cls-2 {
        isolation: isolate;
        font-size: 8px;
        fill: #fff;
        font-family: Arial;
        font-weight: 700;
      }
    </style>
  </defs>
  <title>PDF</title>
  <path id="outline" class="cls-1" d="M1401.6,369.3h-18V343.6h12.6v5.6a0.5,0.5,0,0,0,.5.5h4.8v4.5h1.9v-5.5a0.6,0.6,0,0,0-.2-0.5l-5.8-6.6a0.4,0.4,0,0,0-.3-0.2h-14.4a1.2,1.2,0,0,0-1.2,1.2v27.6a1.2,1.2,0,0,0,1.2,1.2h19.4a1.2,1.2,0,0,0,1.2-1.2v-4.9h-1.9v3.9Z" transform="translate(-1381.7 -341.4)"/>
  <rect id="rectangle" class="cls-1" x="4.6" y="13.8" width="20" height="9.12" rx="1.4" ry="1.4"/>
  <text class="cls-2" transform="translate(6.5 21.2)">PDF</text>
</svg>
